<svg width="20" height="20" viewBox="0 0 20 20" fill="none" xmlns="http://www.w3.org/2000/svg">
<path d="M16.0333 4.64917H15.7L12.8833 1.8325C12.7733 1.7243 12.6252 1.66367 12.4708 1.66367C12.3165 1.66367 12.1684 1.7243 12.0583 1.8325C11.8333 2.0575 11.8333 2.42417 12.0583 2.6575L14.05 4.64917H5.95L7.94166 2.6575C8.16666 2.4325 8.16666 2.06583 7.94166 1.8325C7.83163 1.7243 7.68349 1.66367 7.52916 1.66367C7.37484 1.66367 7.2267 1.7243 7.11666 1.8325L4.30833 4.64917H3.975C3.225 4.64917 1.66666 4.64917 1.66666 6.7825C1.66666 7.59083 1.83333 8.12417 2.18333 8.47417C2.38333 8.6825 2.625 8.79083 2.88333 8.84917C3.125 8.9075 3.38333 8.91583 3.63333 8.91583H16.3667C16.625 8.91583 16.8667 8.89917 17.1 8.84917C17.8 8.6825 18.3333 8.1825 18.3333 6.7825C18.3333 4.64917 16.775 4.64917 16.0333 4.64917ZM15.875 10H4.05833C3.54166 10 3.15 10.4583 3.23333 10.9667L3.93333 15.25C4.16666 16.6833 4.79166 18.3333 7.56666 18.3333H12.2417C15.05 18.3333 15.55 16.925 15.85 15.35L16.6917 10.9917C16.7155 10.8711 16.7122 10.7468 16.6822 10.6277C16.6521 10.5085 16.596 10.3975 16.5179 10.3027C16.4398 10.2078 16.3416 10.1315 16.2304 10.0791C16.1193 10.0268 15.9979 9.99977 15.875 10ZM10 16.25C9.06137 16.2478 8.16181 15.874 7.49809 15.2102C6.83438 14.5465 6.46053 13.647 6.45833 12.7083C6.45833 12.3667 6.74166 12.0833 7.08333 12.0833C7.425 12.0833 7.70833 12.3667 7.70833 12.7083C7.70833 13.975 8.73333 15 10 15C11.2667 15 12.2917 13.975 12.2917 12.7083C12.2917 12.3667 12.575 12.0833 12.9167 12.0833C13.2583 12.0833 13.5417 12.3667 13.5417 12.7083C13.5395 13.647 13.1656 14.5465 12.5019 15.2102C11.8382 15.874 10.9386 16.2478 10 16.25Z" fill="#1A1B1F"/>
</svg>
